<svg width="80" height="16" viewBox="0 0 80 16" fill="none" xmlns="http://www.w3.org/2000/svg">
  <path
    d="M11.8405 3.51318L11.4655 5.56491H14.694L13.4353 12.7546H15.9431L17.2017 5.56491H20.4681L20.8431 3.51318H11.8405Z"
    fill="#142355" />
  <path
    d="M43.2724 3.51404L40.2379 6.60025L38.2724 3.51404H35.9483L34.3302 12.7571H36.7147L37.6983 7.10801L39.1759 9.68128H40.3483L42.6405 7.13128L41.6629 12.7571H44.0474L45.6664 3.51404H43.2724Z"
    fill="#C82814" />
  <path
    d="M59.4707 3.51318L59.0948 5.56491H62.3233L61.0647 12.7546H63.5724L64.8311 5.56491H68.0983L68.4733 3.51318H59.4707Z"
    fill="#142355" />
  <mask id="mask0_711_1532" style="mask-type:alpha" maskUnits="userSpaceOnUse" x="0" y="3" width="9" height="9">
    <path d="M0 3.00037V11.7599H8.76207V3.00037H0Z" fill="white" />
  </mask>
  <g mask="url(#mask0_711_1532)">
    <path
      d="M1.49812 11.7599C-0.501899 9.75232 -0.499971 6.50479 1.50243 4.49957C3.50924 2.49928 6.75662 2.5012 8.76105 4.50388L6.94898 6.31423C5.94497 5.31136 4.3186 5.31059 3.31364 6.3125C2.31058 7.31711 2.30981 8.94402 3.31191 9.94957L1.49812 11.7599Z"
      fill="#C82814" />
  </g>
  <path
    d="M8.7638 4.50456C10.7645 6.51173 10.763 9.75964 8.76035 11.7649C6.75367 13.766 3.50564 13.7645 1.50086 11.7615L3.31293 9.94939C4.3171 10.9532 5.94441 10.9543 6.95 9.95198C7.95225 8.94724 7.95264 7.32099 6.95086 6.31577L8.7638 4.50456ZM23.606 11.7606C21.6057 9.75266 21.608 6.50448 23.6112 4.49939C25.6178 2.49886 28.8652 2.5004 30.8698 4.50284L29.0569 6.31318C28.0527 5.31056 26.4263 5.31018 25.4216 6.31232C24.4191 7.31683 24.4183 8.94308 25.4198 9.94853L23.606 11.7597V11.7606Z"
    fill="#142355" />
  <path
    d="M30.8716 4.50456C32.8723 6.51173 32.8707 9.75964 30.8681 11.7649C28.8614 13.766 25.6134 13.7645 23.6086 11.7615L25.4207 9.94939C26.4249 10.9532 28.0522 10.9543 29.0578 9.95198C30.06 8.94724 30.0604 7.32099 29.0586 6.31577L30.8716 4.50456ZM49.1276 11.7606C47.127 9.7529 47.1289 6.50471 49.1319 4.49939C51.1385 2.49886 54.3859 2.5004 56.3905 4.50284L54.5785 6.31318C53.5742 5.31056 51.9478 5.31018 50.9431 6.31232C49.9406 7.31683 49.9399 8.94308 50.9414 9.94853L49.1276 11.7597V11.7606Z"
    fill="#C82814" />
  <path
    d="M56.3931 4.50456C58.3939 6.51173 58.3923 9.75964 56.3897 11.7649C54.383 13.766 51.135 13.7645 49.1302 11.7615L50.9423 9.94939C51.9463 10.9526 53.573 10.9537 54.5785 9.95198C55.581 8.94747 55.5817 7.32123 54.5802 6.31577L56.3931 4.50456ZM71.2354 11.7606C69.2348 9.7529 69.2367 6.50471 71.2397 4.49939C73.2463 2.49886 76.4936 2.5004 78.4983 4.50284L76.6862 6.31318C75.682 5.31056 74.0556 5.31018 73.0509 6.31232C72.0482 7.31659 72.047 8.94284 73.0483 9.94853L71.2354 11.7597V11.7606Z"
    fill="#142355" />
  <path
    d="M78.5 4.50452C80.501 6.51145 80.4998 9.75936 78.4974 11.7649C76.4907 13.7665 73.242 13.765 71.2371 11.7614L73.05 9.94935C74.0541 10.9525 75.6807 10.9537 76.6862 9.95193C77.6887 8.94743 77.6895 7.32118 76.688 6.31572L78.5009 4.50452H78.5Z"
    fill="#C82814" />
</svg>